<svg width="1487" height="343" viewBox="0 0 1487 343" fill="none" xmlns="http://www.w3.org/2000/svg">
<path d="M1447.54 127.368C1447.07 123.048 1446.06 119.23 1444.52 115.916C1443.04 112.542 1441 109.702 1438.4 107.393C1435.79 105.026 1432.63 103.221 1428.9 101.978C1425.17 100.735 1420.85 100.113 1415.94 100.113C1406.65 100.113 1397.94 102.422 1389.84 107.038C1381.79 111.655 1374.92 118.372 1369.24 127.191C1363.56 135.95 1359.68 146.663 1357.61 159.329C1355.48 171.994 1355.48 182.766 1357.61 191.644C1359.8 200.522 1363.91 207.299 1369.95 211.974C1376.05 216.591 1383.89 218.899 1393.48 218.899C1402.18 218.899 1409.99 217.36 1416.91 214.283C1423.84 211.146 1429.49 206.736 1433.87 201.055C1438.31 195.373 1441.15 188.655 1442.39 180.902L1450.03 182.056H1403.24L1408.04 153.114H1484.12L1480.21 176.019C1477.67 191.999 1472.07 205.73 1463.43 217.212C1454.79 228.694 1444.02 237.513 1431.12 243.668C1418.28 249.823 1404.19 252.901 1388.86 252.901C1371.81 252.901 1357.46 249.143 1345.8 241.626C1334.2 234.05 1325.95 223.308 1321.03 209.4C1316.18 195.432 1315.32 178.86 1318.46 159.684C1320.89 144.947 1325.21 131.807 1331.42 120.266C1337.69 108.666 1345.36 98.841 1354.41 90.7917C1363.47 82.7425 1373.5 76.6168 1384.51 72.4146C1395.58 68.2124 1407.09 66.1113 1419.04 66.1113C1429.34 66.1113 1438.66 67.6206 1447.01 70.639C1455.41 73.5983 1462.61 77.8005 1468.58 83.2456C1474.62 88.6906 1479.18 95.1715 1482.25 102.688C1485.39 110.145 1486.84 118.372 1486.6 127.368H1447.54Z" fill="#3050FF"/>
<path d="M1312.49 68.5977L1282.3 250.416H1249.1L1189.17 135.98H1187.75L1168.67 250.416H1130.22L1160.41 68.5977H1194.15L1253.8 182.944H1255.31L1274.22 68.5977H1312.49Z" fill="#3050FF"/>
<path d="M1024 68.5977L1050.28 130.565H1051.7L1098.93 68.5977H1143.58L1073.18 159.507L1114.64 250.416H1071.23L1044.24 188.36H1042.82L995.235 250.416H950.402L1022.58 159.507L981.652 68.5977H1024Z" fill="#3050FF"/>
<path d="M863.508 250.415L886.235 114.052H922.901L918.906 137.844H920.326C924.232 129.381 929.47 122.989 936.04 118.668C942.669 114.289 949.8 112.099 957.435 112.099C959.329 112.099 961.312 112.217 963.384 112.454C965.514 112.631 967.408 112.927 969.065 113.342L963.384 146.989C961.726 146.397 959.359 145.923 956.281 145.568C953.263 145.154 950.392 144.947 947.67 144.947C942.165 144.947 937.046 146.16 932.311 148.587C927.576 150.954 923.581 154.268 920.326 158.53C917.13 162.791 915.029 167.704 914.023 173.267L901.327 250.415H863.508Z" fill="#3050FF"/>
<path d="M764.518 252.99C755.877 252.99 748.39 251.481 742.057 248.462C735.783 245.385 731.167 240.828 728.207 234.791C725.248 228.754 724.508 221.267 725.988 212.33C727.29 204.754 729.746 198.421 733.356 193.331C737.026 188.182 741.494 184.039 746.762 180.902C752.03 177.765 757.859 175.368 764.251 173.711C770.703 172.054 777.361 170.929 784.227 170.337C792.157 169.509 798.609 168.71 803.58 167.94C808.611 167.171 812.369 166.076 814.855 164.656C817.341 163.176 818.85 160.986 819.383 158.086V157.553C820.271 151.99 819.235 147.669 816.275 144.592C813.375 141.455 808.729 139.886 802.337 139.886C795.59 139.886 789.849 141.366 785.114 144.325C780.439 147.285 777.095 151.043 775.082 155.6L740.636 152.759C743.714 144.473 748.36 137.312 754.575 131.275C760.848 125.179 768.394 120.503 777.213 117.248C786.032 113.934 795.916 112.276 806.865 112.276C814.441 112.276 821.513 113.164 828.083 114.94C834.712 116.715 840.423 119.467 845.217 123.196C850.07 126.925 853.562 131.719 855.693 137.578C857.883 143.378 858.327 150.333 857.025 158.441L841.666 250.416H805.8L808.996 231.506H807.93C805.03 235.767 801.479 239.525 797.277 242.781C793.075 245.977 788.251 248.492 782.806 250.327C777.361 252.102 771.265 252.99 764.518 252.99ZM779.699 226.889C785.203 226.889 790.263 225.794 794.88 223.604C799.556 221.355 803.403 218.337 806.421 214.549C809.499 210.761 811.452 206.47 812.28 201.676L814.589 187.205C813.405 187.975 811.689 188.655 809.44 189.247C807.25 189.839 804.853 190.401 802.249 190.934C799.704 191.408 797.129 191.851 794.525 192.266C791.921 192.621 789.583 192.976 787.511 193.331C782.954 193.982 778.87 195.018 775.26 196.438C771.65 197.859 768.72 199.782 766.471 202.209C764.222 204.576 762.831 207.536 762.298 211.087C761.47 216.236 762.683 220.172 765.938 222.894C769.253 225.558 773.839 226.889 779.699 226.889Z" fill="#3050FF"/>
<path d="M645.62 253.079C631.652 253.079 620.081 250.238 610.907 244.556C601.733 238.815 595.282 230.707 591.553 220.231C587.884 209.696 587.263 197.237 589.689 182.855C592.057 168.828 596.821 156.518 603.982 145.923C611.203 135.329 620.259 127.073 631.149 121.154C642.039 115.236 654.172 112.276 667.548 112.276C676.544 112.276 684.682 113.726 691.962 116.627C699.301 119.467 705.397 123.788 710.25 129.588C715.103 135.329 718.418 142.52 720.193 151.161C722.028 159.802 721.999 169.923 720.105 181.524L718.418 191.911H603.361L607.001 168.473H686.546C687.434 163.028 687.079 158.204 685.481 154.002C683.883 149.8 681.22 146.515 677.491 144.148C673.762 141.721 669.175 140.508 663.73 140.508C658.167 140.508 652.959 141.869 648.105 144.592C643.252 147.314 639.168 150.895 635.854 155.334C632.599 159.714 630.498 164.478 629.551 169.627L625.378 192.887C624.194 200.049 624.431 205.997 626.088 210.732C627.805 215.466 630.764 219.018 634.966 221.385C639.168 223.693 644.495 224.847 650.946 224.847C655.148 224.847 659.084 224.256 662.754 223.072C666.482 221.888 669.797 220.142 672.697 217.834C675.597 215.466 677.964 212.537 679.799 209.045L714.334 211.353C711.138 219.757 706.285 227.096 699.774 233.37C693.264 239.585 685.422 244.438 676.248 247.93C667.134 251.363 656.924 253.079 645.62 253.079Z" fill="#3050FF"/>
<path d="M548.162 121.42C548.458 114.022 546.298 108.311 541.681 104.286C537.124 100.261 530.229 98.2491 520.996 98.2491C514.722 98.2491 509.277 99.1369 504.661 100.912C500.044 102.629 496.345 105.026 493.563 108.104C490.841 111.122 489.154 114.614 488.503 118.579C487.852 121.835 488.059 124.675 489.124 127.102C490.249 129.529 491.995 131.63 494.362 133.405C496.789 135.122 499.659 136.631 502.974 137.933C506.288 139.176 509.81 140.241 513.538 141.129L529.163 145.035C536.798 146.811 543.664 149.178 549.76 152.138C555.915 155.097 561.064 158.737 565.207 163.057C569.41 167.378 572.369 172.468 574.085 178.327C575.802 184.187 576.038 190.904 574.795 198.48C572.902 209.607 568.492 219.254 561.567 227.422C554.643 235.53 545.558 241.833 534.313 246.332C523.067 250.77 510.046 252.99 495.25 252.99C480.572 252.99 468.173 250.741 458.052 246.243C447.931 241.745 440.563 235.086 435.946 226.268C431.389 217.39 430.027 206.411 431.862 193.331H469.06C468.409 199.427 469.297 204.517 471.724 208.601C474.21 212.625 477.909 215.673 482.821 217.745C487.733 219.757 493.504 220.763 500.133 220.763C506.702 220.763 512.532 219.816 517.622 217.922C522.771 216.028 526.944 213.395 530.14 210.021C533.336 206.648 535.289 202.771 535.999 198.391C536.71 194.307 536.088 190.875 534.135 188.093C532.182 185.311 529.045 182.944 524.724 180.991C520.463 178.978 515.166 177.203 508.833 175.664L489.835 170.692C475.157 166.964 464.059 161.134 456.543 153.203C449.026 145.272 446.333 134.589 448.464 121.154C450.358 110.145 454.945 100.528 462.224 92.301C469.563 84.015 478.796 77.5933 489.923 73.036C501.109 68.4196 513.331 66.1113 526.589 66.1113C540.083 66.1113 551.476 68.4492 560.768 73.1248C570.061 77.7413 576.837 84.1925 581.099 92.4785C585.36 100.765 586.662 110.412 585.005 121.42H548.162Z" fill="#3050FF"/>
<path fill-rule="evenodd" clip-rule="evenodd" d="M132.905 38.5541C80.7202 38.5541 38.4164 80.8579 38.4164 133.042C38.4164 185.227 80.7202 227.53 132.905 227.53C185.089 227.53 227.393 185.227 227.393 133.042C227.393 80.8579 185.089 38.5541 132.905 38.5541ZM0.621094 133.042C0.621094 59.9841 59.8464 0.758789 132.905 0.758789C205.963 0.758789 265.188 59.9841 265.188 133.042C265.188 206.1 205.963 265.326 132.905 265.326C59.8464 265.326 0.621094 206.1 0.621094 133.042Z" fill="#3050FF"/>
<path d="M101.132 72.6168C113.999 65.9602 128.655 63.5849 142.966 65.8367C157.277 68.0885 170.495 74.8498 180.696 85.1361C190.898 95.4225 197.549 108.697 199.682 123.026C201.814 137.355 199.317 151.991 192.554 164.802" stroke="#3050FF" stroke-width="18.8976"/>
<path d="M238.162 186.94L188.892 238.381L297.971 342.858L347.242 291.417L238.162 186.94Z" fill="#3050FF"/>
</svg>
